<svg xmlns="http://www.w3.org/2000/svg" width="1200" height="680" viewBox="0 0 1200 680" role="img" aria-labelledby="title desc">
  <title id="title">seqattn A30 400K-token optimized HBM workspace benchmark</title>
  <desc id="desc">The optimized Ampere profile reaches 102.319 seconds at 1 GiB and remains between 105.233 and 109.078 seconds from 2 to 16 GiB. At 0.5 GiB, 7.61 TiB of logical H2D traffic makes the operator PCIe-bound and execution takes 681.162 seconds. Both axes are logarithmic.</desc>
  <rect width="1200" height="680" rx="8" fill="#0b1220"/>
  <text x="48" y="58" fill="#f8fafc" font-family="Inter,Segoe UI,sans-serif" font-size="30" font-weight="700">A30 400K-token exact dense attention</text>
  <text x="48" y="90" fill="#94a3b8" font-family="Inter,Segoe UI,sans-serif" font-size="17">NVIDIA A30 24GiB · 409,600 tokens · BF16 MHA 56/56/56 · 64x64 / 4 warps / 1 stage · log axes</text>
  <line x1="150" y1="560" x2="1090" y2="560" stroke="#26364d" stroke-width="1"/>
  <text x="138" y="564" fill="#64748b" font-family="Inter,Segoe UI,sans-serif" font-size="13" text-anchor="end">100 s</text>
  <line x1="150" y1="413" x2="1090" y2="413" stroke="#26364d" stroke-width="1"/>
  <text x="138" y="417" fill="#64748b" font-family="Inter,Segoe UI,sans-serif" font-size="13" text-anchor="end">200 s</text>
  <line x1="150" y1="267" x2="1090" y2="267" stroke="#26364d" stroke-width="1"/>
  <text x="138" y="271" fill="#64748b" font-family="Inter,Segoe UI,sans-serif" font-size="13" text-anchor="end">400 s</text>
  <line x1="150" y1="120" x2="1090" y2="120" stroke="#26364d" stroke-width="1"/>
  <text x="138" y="124" fill="#64748b" font-family="Inter,Segoe UI,sans-serif" font-size="13" text-anchor="end">800 s</text>
  <line x1="150" y1="560" x2="150" y2="566" stroke="#26364d" stroke-width="1"/>
  <text x="150" y="584" fill="#64748b" font-family="Inter,Segoe UI,sans-serif" font-size="13" text-anchor="middle">0.5 GiB</text>
  <line x1="338" y1="560" x2="338" y2="566" stroke="#26364d" stroke-width="1"/>
  <text x="338" y="584" fill="#64748b" font-family="Inter,Segoe UI,sans-serif" font-size="13" text-anchor="middle">1 GiB</text>
  <line x1="526" y1="560" x2="526" y2="566" stroke="#26364d" stroke-width="1"/>
  <text x="526" y="584" fill="#64748b" font-family="Inter,Segoe UI,sans-serif" font-size="13" text-anchor="middle">2 GiB</text>
  <line x1="714" y1="560" x2="714" y2="566" stroke="#26364d" stroke-width="1"/>
  <text x="714" y="584" fill="#64748b" font-family="Inter,Segoe UI,sans-serif" font-size="13" text-anchor="middle">4 GiB</text>
  <line x1="902" y1="560" x2="902" y2="566" stroke="#26364d" stroke-width="1"/>
  <text x="902" y="584" fill="#64748b" font-family="Inter,Segoe UI,sans-serif" font-size="13" text-anchor="middle">8 GiB</text>
  <line x1="1090" y1="560" x2="1090" y2="566" stroke="#26364d" stroke-width="1"/>
  <text x="1090" y="584" fill="#64748b" font-family="Inter,Segoe UI,sans-serif" font-size="13" text-anchor="middle">16 GiB</text>
  <text x="1090" y="604" fill="#94a3b8" font-family="Inter,Segoe UI,sans-serif" font-size="14" text-anchor="end">HBM workspace (log)</text>
  <text x="150" y="80" fill="#94a3b8" font-family="Inter,Segoe UI,sans-serif" font-size="14">Execution, seconds (log)</text>
  <path d="M150,122 L338,329 L526,403 L714,456 L824,494 L902,513 L1012,538 L1090,538" fill="none" stroke="#fb923c" stroke-width="2" stroke-dasharray="6,4"/>
  <circle cx="150" cy="122" r="4" fill="#fb923c"/>
  <circle cx="338" cy="329" r="4" fill="#fb923c"/>
  <circle cx="526" cy="403" r="4" fill="#fb923c"/>
  <circle cx="714" cy="456" r="4" fill="#fb923c"/>
  <circle cx="824" cy="494" r="4" fill="#fb923c"/>
  <circle cx="902" cy="513" r="4" fill="#fb923c"/>
  <circle cx="1012" cy="538" r="4" fill="#fb923c"/>
  <circle cx="1090" cy="538" r="4" fill="#fb923c"/>
  <text x="1102" y="564" fill="#64748b" font-family="Inter,Segoe UI,sans-serif" font-size="13">20</text>
  <text x="1102" y="446" fill="#64748b" font-family="Inter,Segoe UI,sans-serif" font-size="13">100</text>
  <text x="1102" y="328" fill="#64748b" font-family="Inter,Segoe UI,sans-serif" font-size="13">500</text>
  <text x="1102" y="226" fill="#64748b" font-family="Inter,Segoe UI,sans-serif" font-size="13">2000</text>
  <text x="1102" y="124" fill="#64748b" font-family="Inter,Segoe UI,sans-serif" font-size="13">8000</text>
  <text x="1102" y="80" fill="#fb923c" font-family="Inter,Segoe UI,sans-serif" font-size="14">H2D GiB (log)</text>
  <path d="M150,154 L338,555 L526,549 L714,546 L824,544 L902,542 L1012,542 L1090,542" fill="none" stroke="#38bdf8" stroke-width="3"/>
  <circle cx="150" cy="154" r="5" fill="#38bdf8"/>
  <text x="150" y="142" fill="#cbd5e1" font-family="Inter,Segoe UI,sans-serif" font-size="13" text-anchor="middle">681.162s</text>
  <circle cx="338" cy="555" r="5" fill="#38bdf8"/>
  <text x="338" y="539" fill="#cbd5e1" font-family="Inter,Segoe UI,sans-serif" font-size="13" text-anchor="middle">102.319s</text>
  <circle cx="526" cy="549" r="5" fill="#38bdf8"/>
  <text x="526" y="533" fill="#cbd5e1" font-family="Inter,Segoe UI,sans-serif" font-size="13" text-anchor="middle">105.233s</text>
  <circle cx="714" cy="546" r="5" fill="#38bdf8"/>
  <text x="714" y="530" fill="#cbd5e1" font-family="Inter,Segoe UI,sans-serif" font-size="13" text-anchor="middle">106.956s</text>
  <circle cx="824" cy="544" r="5" fill="#38bdf8"/>
  <text x="824" y="528" fill="#cbd5e1" font-family="Inter,Segoe UI,sans-serif" font-size="13" text-anchor="middle">108.102s</text>
  <circle cx="902" cy="542" r="5" fill="#38bdf8"/>
  <text x="902" y="526" fill="#cbd5e1" font-family="Inter,Segoe UI,sans-serif" font-size="13" text-anchor="middle">108.696s</text>
  <circle cx="1012" cy="542" r="5" fill="#38bdf8"/>
  <text x="1012" y="526" fill="#cbd5e1" font-family="Inter,Segoe UI,sans-serif" font-size="13" text-anchor="middle">109.078s</text>
  <circle cx="1090" cy="542" r="5" fill="#38bdf8"/>
  <text x="1090" y="526" fill="#cbd5e1" font-family="Inter,Segoe UI,sans-serif" font-size="13" text-anchor="middle">108.820s</text>
  <rect x="565" y="446" width="560" height="52" rx="6" fill="#132033"/>
  <text x="575" y="468" fill="#f8fafc" font-family="Inter,Segoe UI,sans-serif" font-size="14">1 GiB is fastest · 3.90% faster than the previous kernel · 0.5 GiB remains PCIe-bound</text>
  <text x="575" y="488" fill="#94a3b8" font-family="Inter,Segoe UI,sans-serif" font-size="13">FlashAttention 2 reference: 50.827 s (2026-08-18) · optimized streaming is 2.01-2.15x at 1-16 GiB</text>
</svg>
